<svg version="1" xmlns="http://www.w3.org/2000/svg" width="400" height="400" viewBox="0 0 300.000000 300.000000"><path d="M0 150v150h300V0H0v150zM157.9 46.2c0 1.8-4.6 37.3-10.2 78.8l-10.2 75.4-7 2.4c-13.8 4.8-28.9 7.3-46.5 7.9-12.7.4-18.2.1-23.9-1.1-13.7-2.9-22.3-10-25.6-20.8-2-6.7-2-23.5 0-35.8 4.6-27.9 15.5-45.5 33.7-53.9 11.2-5.3 16.5-6.3 35.8-6.8l16.6-.5 2.8-22.7c1.5-12.4 3-23.4 3.2-24.4.5-1.5 2.1-1.7 16-1.7H158l-.1 3.2zm78.4 46.3c11.7 3 18.2 7.8 22.4 16.3 2.7 5.5 2.8 6.3 2.8 20.7-.1 35.7-12.1 61.7-33.5 72.5-10.7 5.4-19.2 7-37.2 7-11.8 0-16 .3-16.3 1.2-.2.7-1.6 10.3-3 21.3s-2.7 21.5-3 23.2l-.6 3.3h-31.8l.5-2.8c.7-3.9 20.4-151.4 20.4-152.9 0-2.5 27.4-9.5 44-11.3 10.9-1.1 28-.4 35.3 1.5z"/><path d="M73.5 111.2C72.6 117 63 189.7 63 191.4c0 1.4 2.4 1.6 22 1.6h22l.4-2.2c.8-3.6 10.6-78.4 10.6-80.7 0-2.1-.3-2.1-22-2.1H74.1l-.6 3.2zM187.9 108.2c-.6 1.2-11.5 84.5-11.2 85 .6 1.1 43.1 1 43.8-.1.4-.8 11.5-81.7 11.5-84.3 0-.7-43.8-1.2-44.1-.6z"/></svg>